<svg preserveAspectRatio="xMinYMid meet" width="1756" height="461" overflow="visible" style="display: block;" viewBox="0 0 1756 461" fill="none" xmlns="http://www.w3.org/2000/svg">
<g id="Logo moraleja">
<g id="Moraleja">
<path d="M0 347.925V10.8726L153.334 211.654L303.768 10.8726V347.925H251.569V225.789C251.569 215.641 251.69 204.285 251.932 191.721C252.173 179.157 253.14 164.902 254.832 148.955C247.34 161.761 240.09 172.996 233.082 182.66C226.074 192.325 219.67 201.144 213.87 209.117L151.884 295.011L88.0855 209.117C82.2856 201.385 75.7608 192.446 68.5109 182.298C61.2611 172.15 54.0113 160.794 46.7614 148.23C48.4531 164.66 49.4197 179.157 49.6614 191.721C49.903 204.043 50.0238 215.399 50.0238 225.789V347.925H0Z" fill="var(--fill-0, black)"/>
<path d="M476.427 353.723C455.161 353.723 435.707 348.649 418.066 338.502C400.425 328.112 386.409 314.219 376.017 296.823C365.626 279.427 360.43 260.219 360.43 239.198C360.43 217.936 365.626 198.728 376.017 181.573C386.409 164.177 400.425 150.405 418.066 140.257C435.707 129.868 455.161 124.673 476.427 124.673C497.935 124.673 517.389 129.868 534.788 140.257C552.43 150.405 566.446 164.177 576.838 181.573C587.229 198.728 592.425 217.936 592.425 239.198C592.425 260.219 587.229 279.427 576.838 296.823C566.446 314.219 552.43 328.112 534.788 338.502C517.389 348.649 497.935 353.723 476.427 353.723ZM476.427 306.971C488.752 306.971 499.989 303.951 510.139 297.91C520.289 291.628 528.264 283.414 534.063 273.266C540.105 263.118 543.126 251.762 543.126 239.198C543.126 226.634 540.105 215.278 534.063 205.13C528.264 194.983 520.289 186.889 510.139 180.848C499.989 174.566 488.752 171.425 476.427 171.425C464.103 171.425 452.865 174.566 442.716 180.848C432.566 186.889 424.47 194.983 418.429 205.13C412.629 215.278 409.729 226.634 409.729 239.198C409.729 251.762 412.629 263.118 418.429 273.266C424.47 283.414 432.445 291.628 442.353 297.91C452.503 303.951 463.861 306.971 476.427 306.971Z" fill="var(--fill-0, black)"/>
<path d="M638.042 347.925V130.472H684.441V168.888C692.174 156.324 702.082 146.418 714.165 139.17C726.248 131.921 740.627 128.297 757.302 128.297L768.901 175.774C764.31 174.325 759.114 173.6 753.314 173.6C733.981 173.6 718.394 179.761 706.553 192.083C694.953 204.406 689.153 222.043 689.153 244.997V347.925H638.042Z" fill="var(--fill-0, black)"/>
<path d="M891.401 352.274C871.585 352.274 853.46 347.2 837.027 337.052C820.594 326.904 807.424 313.253 797.516 296.098C787.849 278.944 783.016 259.977 783.016 239.198C783.016 218.419 787.849 199.453 797.516 182.298C807.424 165.143 820.594 151.492 837.027 141.344C853.46 131.197 871.585 126.123 891.401 126.123C905.901 126.123 919.313 128.78 931.638 134.096C944.204 139.17 954.958 146.418 963.899 155.841V130.472H1009.21V347.925H963.899V322.555C954.958 331.736 944.204 338.985 931.638 344.3C919.313 349.616 905.901 352.274 891.401 352.274ZM897.926 306.608C910.009 306.608 921.004 303.588 930.913 297.548C941.062 291.508 949.037 283.414 954.837 273.266C960.879 263.118 963.899 251.762 963.899 239.198C963.899 226.876 960.879 215.641 954.837 205.493C949.037 195.104 941.183 186.889 931.275 180.848C921.367 174.808 910.251 171.788 897.926 171.788C885.843 171.788 874.726 174.808 864.577 180.848C854.668 186.889 846.694 194.983 840.652 205.13C834.852 215.278 831.952 226.634 831.952 239.198C831.952 251.52 834.852 262.876 840.652 273.266C846.694 283.414 854.668 291.508 864.577 297.548C874.485 303.588 885.601 306.608 897.926 306.608Z" fill="var(--fill-0, black)"/>
<path d="M1068.13 347.925V33.4543C1068.13 14.978 1083.11 0 1101.59 0H1119.24V347.925H1068.13Z" fill="var(--fill-0, black)"/>
<path d="M1286.4 353.723C1262.96 353.723 1242.06 348.649 1223.69 338.502C1205.33 328.354 1190.95 314.461 1180.56 296.823C1170.41 279.185 1165.33 259.252 1165.33 237.024C1165.33 215.762 1170.29 196.674 1180.19 179.761C1190.34 162.848 1203.88 149.438 1220.79 139.532C1237.95 129.626 1256.8 124.673 1277.34 124.673C1298.12 124.673 1316.85 129.505 1333.53 139.17C1350.44 148.834 1363.86 162.002 1373.76 178.674C1383.67 195.104 1388.63 213.829 1388.63 234.849V254.057H1251.24C1245.2 254.057 1239.16 253.816 1233.12 253.333C1227.08 252.608 1221.03 251.762 1214.99 250.796C1217.89 267.467 1225.87 281.36 1238.92 292.474C1252.21 303.588 1268.4 309.145 1287.49 309.145C1301.27 309.145 1313.83 306.246 1325.19 300.447C1336.55 294.407 1345.85 286.675 1353.1 277.252L1365.43 327.991C1354.79 336.448 1342.71 342.851 1329.18 347.2C1315.64 351.549 1301.39 353.723 1286.4 353.723ZM1213.91 218.178C1226.47 215.762 1238.92 214.553 1251.24 214.553H1306.34C1312.38 214.553 1318.18 214.795 1323.74 215.278C1329.54 215.762 1335.1 216.366 1340.41 217.09C1336.79 202.352 1329.18 190.392 1317.58 181.211C1306.22 171.788 1292.69 167.076 1276.98 167.076C1261.75 167.076 1248.34 171.909 1236.74 181.573C1225.14 191.238 1217.53 203.439 1213.91 218.178Z" fill="var(--fill-0, black)"/>
<path d="M1415.2 461L1405.05 418.959C1413.51 418.959 1420.28 416.543 1425.35 411.711C1430.43 407.12 1432.96 399.147 1432.96 387.791V163.926C1432.96 145.45 1447.94 130.472 1466.42 130.472H1484.44V388.153C1484.44 411.348 1477.91 429.228 1464.86 441.792C1451.81 454.597 1435.26 461 1415.2 461ZM1458.7 95.3168C1450.24 95.3168 1443.11 92.4175 1437.31 86.6187C1431.51 80.5784 1428.61 73.4507 1428.61 65.2358C1428.61 56.5377 1431.51 49.4101 1437.31 43.853C1443.35 38.0542 1450.48 35.1549 1458.7 35.1549C1467.4 35.1549 1474.53 38.0542 1480.09 43.853C1485.89 49.6517 1488.79 56.7794 1488.79 65.2358C1488.79 73.6924 1485.89 80.82 1480.09 86.6187C1474.29 92.4175 1467.16 95.3168 1458.7 95.3168Z" fill="var(--fill-0, black)"/>
<path d="M1638.19 352.274C1618.37 352.274 1600.25 347.2 1583.82 337.052C1567.38 326.904 1554.21 313.253 1544.3 296.098C1534.64 278.944 1529.81 259.977 1529.81 239.198C1529.81 218.419 1534.64 199.453 1544.3 182.298C1554.21 165.143 1567.38 151.492 1583.82 141.344C1600.25 131.197 1618.37 126.123 1638.19 126.123C1652.69 126.123 1666.1 128.78 1678.43 134.096C1690.99 139.17 1701.75 146.418 1710.69 155.841V130.472H1756V347.925H1710.69V322.555C1701.75 331.736 1690.99 338.985 1678.43 344.3C1666.1 349.616 1652.69 352.274 1638.19 352.274ZM1644.72 306.608C1656.8 306.608 1667.79 303.588 1677.7 297.548C1687.85 291.508 1695.83 283.414 1701.63 273.266C1707.67 263.118 1710.69 251.762 1710.69 239.198C1710.69 226.876 1707.67 215.641 1701.63 205.493C1695.83 195.104 1687.97 186.889 1678.06 180.848C1668.16 174.808 1657.04 171.788 1644.72 171.788C1632.63 171.788 1621.52 174.808 1611.37 180.848C1601.46 186.889 1593.48 194.983 1587.44 205.13C1581.64 215.278 1578.74 226.634 1578.74 239.198C1578.74 251.52 1581.64 262.876 1587.44 273.266C1593.48 283.414 1601.46 291.508 1611.37 297.548C1621.27 303.588 1632.39 306.608 1644.72 306.608Z" fill="var(--fill-0, black)"/>
</g>
</g>
</svg>
